PathFileType	4	(X/Y/Z)	c:/Users/goper/Files/vsCode/490R/osim_files/C03/C03_ROM.trc
DataRate	CameraRate	NumFrames	NumMarkers	Units                	OrigDataRate	OrigDataStartFrame	OrigNumFrames
250.00	250.00	6	36	mm	250.0	1	3653
                Frame#	Time	LPSIS			LASIS			LTH1			LTH2			LTH3			LTH4			LLFE			LMFE			LSH1			LSH2			LSH3			LSH4			LLMAL			LMMAL			LCAL			LMTP5			LTOE			LMTP1			RPSIS			RASIS			RTH1			RTH2			RTH3			RTH4			RLFE			RMFE			RSH1			RSH2			RSH3			RSH4			RLMAL			RMMAL			RCAL			RMTP1			RTOE			RMTP5		
		X1	Y1	Z1	X2	Y2	Z2	X3	Y3	Z3	X4	Y4	Z4	X5	Y5	Z5	X6	Y6	Z6	X7	Y7	Z7	X8	Y8	Z8	X9	Y9	Z9	X10	Y10	Z10	X11	Y11	Z11	X12	Y12	Z12	X13	Y13	Z13	X14	Y14	Z14	X15	Y15	Z15	X16	Y16	Z16	X17	Y17	Z17	X18	Y18	Z18	X19	Y19	Z19	X20	Y20	Z20	X21	Y21	Z21	X22	Y22	Z22	X23	Y23	Z23	X24	Y24	Z24	X25	Y25	Z25	X26	Y26	Z26	X27	Y27	Z27	X28	Y28	Z28	X29	Y29	Z29	X30	Y30	Z30	X31	Y31	Z31	X32	Y32	Z32	X33	Y33	Z33	X34	Y34	Z34	X35	Y35	Z35	X36	Y36	Z36

1	0.00000	-407.13556	1028.85913	368.49155	-227.37828	977.62183	328.08875	-370.01785	641.13660	255.18071	-367.44577	578.80072	253.74040	-293.76276	638.70947	249.52719	-300.90662	577.30524	249.59369	-347.47198	490.80765	249.96304	-340.73102	469.98154	359.88031	-418.57825	312.90045	227.89743	-413.26303	266.76901	225.17328	-358.94998	318.06000	215.18034	-362.11401	269.97061	213.47021	-366.27914	101.89494	218.93217	-339.52545	105.80780	295.12698	-428.74219	64.12452	257.48801	-236.28560	50.54380	170.96965	-198.49886	66.56412	220.47781	-215.88451	54.57997	262.60120	-400.78418	1023.07965	479.21149	-227.90245	987.32080	535.22339	-384.05472	619.30066	589.35645	-387.67508	557.32678	588.29132	-326.77710	620.73102	619.70044	-321.31500	559.20587	625.93549	-325.83270	487.59769	619.26788	-321.73209	481.67078	504.75299	-422.37509	309.04874	647.24304	-418.88055	262.39853	655.39734	-363.92252	308.04544	669.70355	-369.80783	265.48471	674.75647	-373.42673	104.46272	679.31226	-345.31317	100.33077	602.30377	-436.65710	63.90263	637.36890	-228.46423	41.52129	624.53711	-206.15887	66.02266	674.35486	-266.61545	36.55797	730.09271
2	0.00400	-407.18192	1028.83557	368.42969	-227.43015	977.60602	328.02924	-370.03638	641.13324	255.11823	-367.47681	578.81647	253.69466	-293.77332	638.68347	249.47987	-300.93726	577.30499	249.52455	-347.48972	490.78177	249.92780	-340.78336	469.96783	359.80756	-418.61792	312.89481	227.88243	-413.26529	266.74768	225.16380	-358.95566	318.02249	215.15210	-362.11136	269.93182	213.43777	-366.27298	101.89548	218.91843	-339.54907	105.79489	295.11832	-428.75827	64.13815	257.46872	-236.27928	50.54562	170.97900	-198.50066	66.56422	220.45996	-215.88594	54.57697	262.61703	-400.82532	1023.06720	479.14813	-227.91103	987.28680	535.14636	-384.08960	619.28601	589.25323	-387.69022	557.31915	588.17670	-326.79428	620.70251	619.64600	-321.11899	559.29175	625.95557	-325.85040	487.58066	619.22540	-321.72171	481.62338	504.73126	-422.37601	309.02368	647.20380	-418.87549	262.36084	655.38153	-363.93344	308.03470	669.68591	-369.79407	265.47397	674.72931	-373.43652	104.45074	679.30176	-345.31702	100.29066	602.30634	-436.64462	63.90037	637.35590	-228.50955	41.51208	624.54010	-206.15192	65.99513	674.36658	-266.62338	36.54852	730.09424
3	0.00800	-407.22928	1028.83801	368.37659	-227.47871	977.62573	327.94418	-370.06458	641.13159	255.04408	-367.47754	578.80505	253.62663	-293.77850	638.70306	249.43881	-300.91241	577.33252	249.47318	-347.50369	490.79477	249.88300	-340.81528	469.98071	359.77313	-418.62134	312.89478	227.84712	-413.29718	266.74811	225.14236	-358.97031	318.03470	215.11732	-362.12445	269.94156	213.41557	-366.28772	101.90099	218.92621	-339.55713	105.79797	295.10736	-428.81323	64.16298	257.44980	-236.30994	50.54630	170.98859	-198.50134	66.59875	220.46394	-215.87424	54.60393	262.61554	-400.83002	1023.04590	479.07709	-227.94794	987.30377	535.06561	-384.14240	619.30469	589.19080	-387.75488	557.34210	588.13391	-326.84637	620.71460	619.59479	-321.39212	559.16736	625.79816	-325.86465	487.59610	619.17377	-321.73175	481.61871	504.69208	-422.42206	309.05118	647.16327	-418.87955	262.36304	655.34607	-363.94821	308.06750	669.64343	-369.81235	265.49619	674.71826	-373.47427	104.46063	679.29633	-345.30746	100.31003	602.31018	-436.66574	63.93711	637.35168	-228.47845	41.55166	624.53156	-206.16559	66.02069	674.35577	-266.66095	36.56476	730.07800
4	0.01200	-407.29163	1028.84167	368.33203	-227.29793	977.55939	327.82355	-370.09158	641.13696	254.99542	-367.51663	578.80017	253.61060	-293.92685	638.72540	249.35046	-300.93600	577.33826	249.40805	-347.49435	490.80441	249.81871	-340.81512	470.00507	359.67520	-418.63843	312.88965	227.83179	-413.31082	266.73380	225.13760	-358.96802	318.03427	215.09984	-362.10593	269.92883	213.39417	-366.25635	101.90552	218.90739	-339.56653	105.81185	295.10730	-429.13504	64.53379	257.54535	-236.31900	50.55965	170.97301	-198.52457	66.60474	220.44400	-215.86472	54.60825	262.60266	-400.85974	1023.03644	479.02664	-227.93430	987.28326	534.97791	-384.19571	619.33051	589.11511	-387.79230	557.35632	588.05487	-326.85779	620.71735	619.51642	-321.20245	559.30396	625.82898	-325.88852	487.59811	619.12506	-321.71893	481.60208	504.64581	-422.45297	309.07205	647.14294	-418.90323	262.38962	655.31458	-363.95840	308.06833	669.61688	-369.79257	265.51517	674.67322	-373.48639	104.47258	679.27399	-345.30371	100.32444	602.29840	-436.67426	63.94062	637.36249	-228.48543	41.54261	624.53625	-206.17657	66.02271	674.36548	-266.68753	36.57087	730.04083
5	0.01600	-407.30130	1028.84753	368.26907	-227.55473	977.65161	327.76822	-370.12280	641.14117	254.93651	-367.51407	578.80939	253.53784	-293.79633	638.70892	249.32149	-300.97183	577.35162	249.34253	-347.50488	490.80756	249.78777	-340.84595	470.02563	359.64850	-418.64890	312.90140	227.80507	-413.28821	266.72971	225.08595	-358.98233	318.03970	215.07132	-362.11520	269.93417	213.37422	-366.28357	101.91329	218.90100	-339.55292	105.83479	295.09073	-429.14417	64.54401	257.52557	-236.33748	50.56511	170.97792	-198.54086	66.63051	220.43623	-215.89078	54.61616	262.61075	-400.86493	1023.03296	478.96069	-227.94955	987.29901	534.90332	-384.25165	619.36157	589.03235	-387.85666	557.41260	587.92963	-326.88580	620.71924	619.46393	-321.45328	559.17596	625.67517	-325.89319	487.60721	619.07697	-321.71454	481.59119	504.60092	-422.43860	309.06381	647.12262	-418.89670	262.39941	655.28833	-363.96085	308.09210	669.60681	-369.78818	265.51303	674.66211	-373.47720	104.49719	679.26733	-345.29880	100.32035	602.30444	-436.66806	63.96898	637.34271	-228.47079	41.56533	624.53455	-206.20032	66.01601	674.37256	-266.67517	36.58780	730.06531
6	0.02000	-407.33441	1028.84998	368.23901	-227.42136	977.59967	327.64328	-370.17953	641.15588	254.89984	-367.52261	578.81921	253.50148	-293.82480	638.71619	249.23007	-300.98810	577.38153	249.28325	-347.52411	490.81445	249.74089	-340.83160	470.08182	359.62869	-418.64499	312.90100	227.77769	-413.30502	266.74429	225.09027	-358.98816	318.04480	215.03098	-362.12930	269.94815	213.34605	-366.28226	101.92127	218.90393	-339.56592	105.86553	295.09851	-429.11972	64.57359	257.51923	-236.33859	50.58768	170.98331	-198.54297	66.64008	220.44701	-215.88612	54.64722	262.59558	-400.86584	1023.03583	478.90891	-227.96114	987.29907	534.80774	-384.25876	619.37323	588.97241	-387.88901	557.42596	587.89618	-326.90082	620.75415	619.40601	-321.28970	559.32672	625.70068	-325.90286	487.63528	619.03192	-321.70868	481.59219	504.54559	-422.44263	309.09772	647.10028	-418.89130	262.43799	655.27136	-363.94275	308.11664	669.57477	-369.78976	265.55261	674.64996	-373.48337	104.53371	679.26538	-345.31995	100.33707	602.28754	-436.69693	64.00202	637.35571	-228.48097	41.57010	624.50842	-206.19621	66.04372	674.36487	-266.68747	36.62068	730.06439
